{"title":"22 Jump Street 2014 DVDrip English Klam","uid":11170487,"size":1879524939,"categoryP":"video","categoryS":"movies","magnet":"?xt=urn:btih:34627268a99a565eb17999d60719738d6adcd099&amp;dn=22+Jump+Street+2014+DVDrip+English+Klam&amp;tr=udp%3A%2F%2Ftracker.openbittorrent.com%3A80&amp;tr=udp%3A%2F%2Fopen.demonii.com%3A1337&amp;tr=udp%3A%2F%2Ftracker.coppersurfer.tk%3A6969&amp;tr=udp%3A%2F%2Fexodus.desync.com%3A6969","seeders":8,"leechers":1,"uploader":"Klambake","files":-1,"time":1412693084,"description":"With: Channing Tatum, Jonah Hill and Ice Cube\nNadat ze hun weg door de middelbare school hebben gevonden, vinden er grote veranderingen plaats voor officieren Schmidt (Jonah Hill) en Jenko (Channing Tatum) als ze dit keer undercover gaan op een plaatselijk college. Maar wanneer Jenko zijn verwante ziel tegenkomt in het footballteam en Schmidt infiltreert bij de kunstclub, beginnen ze hun partnerschap in twijfel te trekken. Het is aan hen de taak om niet alleen de zaak op te lossen, maar ook om beproevingen te doorstaan die zullen aantonen of ze een 'volwassen' relatie kunnen aangaan. Als de twee adolescenten kunnen uitgroeien tot 'echte' mannen, zou deze studententijd misschien wel het beste kunnen zijn dat hen ooit is overkomen.\n\nAfter making their way through high school (twice), big changes are in store for officers Schmidt and Jenko when they go deep undercover at a local college.\n &lt;a href=&quot;\nhttp://www.imdb.com/title/tt2294449&quot; rel=&quot;nofollow&quot; target=&quot;_NEW&quot;&gt;\nhttp://www.imdb.com/title/tt2294449&lt;/a&gt;\t\n\n--------------------- Dutch Friends 4ever ---------------------\n---------------------------------------------------------------\n- Bezoek ook eens mijn vrienden op: &lt;a href=&quot; http://www.Film-Test.nl&quot; rel=&quot;nofollow&quot; target=&quot;_NEW&quot;&gt; http://www.Film-Test.nl&lt;/a&gt; --\n----- voor mijn Nederlandse Sync. ondertitels ---- en meer ----\n------- http://www.Film-Test.nl ---- Over Films en meer -------\n---------------------------------------------------------------\n &lt;a href=&quot;\nhttp://i.imgur.com/gtgNhmn.jpg&quot; rel=&quot;nofollow&quot; target=&quot;_NEW&quot;&gt;\nhttp://i.imgur.com/gtgNhmn.jpg&lt;/a&gt; &lt;a href=&quot;\nhttp://i.imgur.com/YVycKmD.jpg&quot; rel=&quot;nofollow&quot; target=&quot;_NEW&quot;&gt;\nhttp://i.imgur.com/YVycKmD.jpg&lt;/a&gt; &lt;a href=&quot;\nhttp://i.imgur.com/JRhN20t.jpg&quot; rel=&quot;nofollow&quot; target=&quot;_NEW&quot;&gt;\nhttp://i.imgur.com/JRhN20t.jpg&lt;/a&gt;\n\nGeneral:\n\nComplete name                            : 22 Jump Street22 Jump Street.avi\nFormat                                   : AVI\nFormat/Info                              : Audio Video Interleave\nFile size                                : 1.75 GiB\nDuration                                 : 1h 51mn\nOverall bit rate                         : 2 238 Kbps\n\nVideo:\n\nFormat                                   : MPEG-4 Visual\nFormat profile                           : Simple@L3\nFormat settings, BVOP                    : No\nFormat settings, QPel                    : No\nFormat settings, GMC                     : No warppoints\nFormat settings, Matrix                  : Default (H.263)\nCodec ID                                 : XVID\nCodec ID/Hint                            : XviD\nDuration                                 : 1h 51mn\nBit rate                                 : 1 779 Kbps\nWidth                                    : 720 pixels\nHeight                                   : 304 pixels\nDisplay aspect ratio                     : 2.35:1\nFrame rate                               : 25.000 fps\nColor space                              : YUV\nChroma subsampling                       : 4:2:0\nBit depth                                : 8 bits\nScan type                                : Progressive\nCompression mode                         : Lossy\nBits/(Pixel*Frame)                       : 0.325\nStream size                              : 1.39 GiB (79%)\nWriting library                          : XviD 1.1.2 (UTC 2006-11-01)\n\nAudio:\n\nFormat                                   : AC-3\nFormat/Info                              : Audio Coding 3\nMode extension                           : CM (complete main)\nFormat settings, Endianness              : Big\nCodec ID                                 : 2000\nDuration                                 : 1h 51mn\nSource duration                          : 1h 51mn\nBit rate mode                            : Constant\nBit rate                                 : 448 Kbps\nChannel(s)                               : 6 channels\nChannel positions                        : Front: L C R, Side: L R, LFE\nSampling rate                            : 48.0 KHz\nBit depth                                : 16 bits\nCompression mode                         : Lossy\nStream size                              : 359 MiB (20%)\nAlignment                                : Aligned on interleaves\nInterleave, duration                     : 32 ms (0.80 video frame)\n\n\n","torrent":{"xt":"urn:btih:34627268a99a565eb17999d60719738d6adcd099","amp;dn":"22+Jump+Street+2014+DVDrip+English+Klam","amp;tr":["udp%3A%2F%2Ftracker.openbittorrent.com%3A80","udp%3A%2F%2Fopen.demonii.com%3A1337","udp%3A%2F%2Ftracker.coppersurfer.tk%3A6969","udp%3A%2F%2Fexodus.desync.com%3A6969"],"infoHash":"34627268a99a565eb17999d60719738d6adcd099","infoHashBuffer":{"type":"Buffer","data":[52,98,114,104,169,154,86,94,177,121,153,214,7,25,115,141,106,220,208,153]},"announce":[],"urlList":[]}}